# xmcd
#
# Track frame offsets: 
#        150
#        9943
#        18421
#        27139
#        37587
#        45781
#        55481
#        65447
#        73825
#        84686
#        90580
#        99645
#
# Disc length: 1440 seconds
#
# Revision: 1
# Processed by: cddbd v1.5.2PL0 Copyright (c) Steve Scherf et al.
# Submitted via: ExactAudioCopyFreeDBPlugin 1.0
#
DISCID=88059e0c
DTITLE=Elvis Presley - King Creole
DYEAR=1958
DGENRE=Soundtrack
TTITLE0=King Creole
TTITLE1=As Long As I Have You
TTITLE2=Hard Headed Woman
TTITLE3=Trouble
TTITLE4=Dixieland Rock
TTITLE5=Don't Ask Me Why
TTITLE6=Lover Doll
TTITLE7=Crawfish
TTITLE8=Young Dreams
TTITLE9=Steadfast, Loyal and True
TTITLE10=New Orleans
TTITLE11=Danny [Bonus Track]
EXTD=
EXTT0=
EXTT1=
EXTT2=
EXTT3=
EXTT4=
EXTT5=
EXTT6=
EXTT7=
EXTT8=
EXTT9=
EXTT10=
EXTT11=
PLAYORDER=
